<?xml version="1.0" encoding="utf-8"?>
<!-- Generator: Adobe Illustrator 18.0.0, SVG Export Plug-In . SVG Version: 6.00 Build 0)  -->
<!DOCTYPE svg PUBLIC "-//W3C//DTD SVG 1.1//EN" "http://www.w3.org/Graphics/SVG/1.1/DTD/svg11.dtd">
<svg version="1.1" id="Layer_1" xmlns="http://www.w3.org/2000/svg" xmlns:xlink="http://www.w3.org/1999/xlink" x="0px" y="0px"
	 viewBox="0 0 160.987 95" enable-background="new 0 0 160.987 95" xml:space="preserve">
<symbol  id="Imago.Dog" viewBox="-773 0 774 626.979">
	<path fill="#FFFFFF" d="M-657.607,626.979c32.454-4.541,151.342-159.072,151.342-159.072l-101.118-106.744l-18.677,40.052
		c0,0-2.55-4.255-17.058-19.809c-78.166-83.797-129.791,26.913-129.791,26.913s85.533,124.389,129.483,171.505L-657.607,626.979z"/>
	<polygon fill="#FFFFFF" points="-587,267 -587,44 -521,44 -521,125 	"/>
	<polygon fill="#FFFFFF" points="-263.38,197.096 -216.379,205.505 -202.717,176.29 -153.617,137.689 -197.665,43 -271.7,43 
		-231.479,129.755 	"/>
	<polygon fill="#FFFFFF" points="-195.537,523.165 -218.928,473.003 -380.249,444.558 -456.623,458.504 -587.398,318.307 
		-487.309,103 -487,103 -487,0 -418.264,0 -418.086,0 -418.086,0 -418.646,114.717 -452.197,186.572 -204.106,230.491 -185.205,190 
		-72.02,103 -120.264,0 -47.443,0 0,103 	"/>
	<polygon display="none" fill="none" points="-773,626 1,626 1,0 -773,0 	"/>
</symbol>
<symbol  id="Imago.Elephant" viewBox="-1790 0 1790 1573">
	<polygon fill="#FFFFFF" points="-613,403 -613,46 -351,45.5 -351,281 	"/>
	<polygon fill="#FFFFFF" points="-103.28,1288.314 0,1067.938 0,1173.164 -39.969,1258.688 	"/>
	<path fill="#FFFFFF" d="M-1645.676,848l86.319-41.691l145.964,65.165l144.808-66.269l78.186-1.395l164.582,76.746l106.459,228.303
		l-0.692,179.516L-1012.66,1485l-188.717,88h-154.98l-109-50.888l-61-124.112l-88-40.947l-87.507-193.655l-2.136-61.984V848
		c0-110.125,1.634-519.925-85.73-714.198l66.484,31.703c13.192,6.291,22.972,18.029,26.768,32.143
		c21.198,78.816,96.738,349.835,177.76,522.304L-1604.602,760L-1645.676,848z"/>
	<polygon fill="#FFFFFF" points="-1439,45.5 -1176,46 -1176,125 -1439,688 	"/>
	<polygon fill="#FFFFFF" points="-50.336,522 -0.921,839.032 -0.856,964.104 -167.222,1317.578 -525.356,1484 -623.568,1484 
		-963.487,1484 -876,1296.003 -876,1101 -993.28,847.374 -1181.405,759 -1275.781,759 -1323.304,781.66 -1413.289,739.918 
		-1131,132.526 -1131,46 -1131,1 -841,0 -841,45.645 -841,132.957 -920,299.405 -920,409.166 -876.005,435 -582.803,436.386 
		-314.495,311.708 -263.396,201.962 -262.856,1 -1.356,1 -1.14,416.5 	"/>
	<path fill="#FFFFFF" stroke="#EC2127" stroke-width="5" stroke-miterlimit="10" d="M-1608.807,638.654"/>
	<polygon display="none" fill="none" points="-1790,1572 0,1572 0,0 -1790,0 	"/>
</symbol>
<symbol  id="Imago.Horse" viewBox="-802 0 802 1099.81">
	<g>
		<polygon fill="#FFFFFF" points="-527.121,995.943 -558.593,1011.124 -463.667,807.554 		"/>
		<polygon fill="#FFFFFF" points="-592.85,1027.649 -742.449,1099.81 -754.041,1014.245 -610.872,989 		"/>
		<polygon fill="#FFFFFF" points="-674.5,493.827 -673.651,87.5 -693.703,44 -627.759,44 -607.708,87.719 -608.5,350.875 		"/>
		<polygon fill="#FFFFFF" points="-323.472,405.265 -406.281,419.536 -359.819,319 -241,221 -241,89.621 -259.875,44 -193.554,44 
			-175,90.11 -175,221 -291.671,336.934 		"/>
		<polygon fill="#FFFFFF" points="-92.736,596.63 -45.366,574.358 -24.129,408.609 0,460.188 0,615 		"/>
		<path fill="#FFFFFF" d="M-41.974,370.442L-66.063,558.5l-144.305,69.427l0.014,0.012l-220.024,62.321l-141.77,298.675
			l-7.627,16.068l-18.935-40.534l-144.471,25.207C-801,866-801,866-801,733.345c28.455-4.681,58.589-15.284,58.589,12.146
			c27.592,27.885,54.425,75.183,67.265,99.254L-674,548h-0.008l0.012-0.096l173.229-371.985l0.074-131.154l-19.825-42.527
			l74.575-1.732l17.877,44.497l-0.484,131.851l-66.285,142.147l28.452,75.093l-8.392,58.452l165.035-29.807l0.627,1.295
			L-275.006,351L-67,176V44.621L-86.875,0h66.321L-1,45.11V176l-65.25,142.523L-41.974,370.442z"/>
	</g>
	<polygon display="none" fill="none" points="-802,1099 0,1099 0,0 -802,0 	"/>
</symbol>
<g>
	<g>
		<path fill="#FFFFFF" d="M44.977,81.008c0,1.396-0.386,2.579-1.158,3.551c-0.773,0.971-1.966,1.691-3.58,2.16v0.059L46.188,95
			h-4.395l-5.441-7.743h-2.511V95h-3.662V75h6.084c1.006,0,1.944,0.058,2.81,0.172c0.867,0.115,1.609,0.286,2.227,0.515
			c1.176,0.448,2.082,1.114,2.72,1.996C44.658,78.565,44.977,79.673,44.977,81.008z M35.65,84.193c0.837,0,1.547-0.037,2.13-0.112
			c0.583-0.075,1.073-0.187,1.472-0.336c0.737-0.28,1.248-0.661,1.532-1.144c0.284-0.483,0.426-1.039,0.426-1.667
			c0-0.538-0.112-1.014-0.336-1.427c-0.224-0.413-0.606-0.74-1.144-0.979c-0.349-0.159-0.787-0.277-1.315-0.352
			c-0.529-0.075-1.181-0.112-1.958-0.112h-2.616v6.129H35.65z"/>
		<path fill="#FFFFFF" d="M53.064,91.936h9.835V95H49.401V75h12.96v3.064h-9.297v5.172h7.982V86.3h-7.982V91.936z"/>
		<path fill="#FFFFFF" d="M77.07,89.633c0.438-1.574,0.981-3.264,1.629-5.067L82.152,75h5.142v20h-3.662V84.865
			c0-1.485,0.06-3.209,0.18-5.172h-0.134c-0.17,0.568-0.369,1.205-0.598,1.913c-0.23,0.708-0.469,1.405-0.718,2.094L78.221,95
			h-2.362l-4.141-11.3c-0.249-0.688-0.488-1.386-0.717-2.094c-0.23-0.708-0.428-1.345-0.598-1.913h-0.134
			c0.119,1.844,0.179,3.563,0.179,5.156V95h-3.662V75h5.112l3.453,9.522c0.578,1.584,1.122,3.288,1.63,5.112H77.07z"/>
		<path fill="#FFFFFF" d="M95.739,91.936h9.835V95H92.077V75h12.96v3.064h-9.297v5.172h7.982V86.3h-7.982V91.936z"/>
		<path fill="#FFFFFF" d="M116.876,90.112c0.368-1.086,0.635-1.861,0.8-2.325c0.164-0.463,0.51-1.413,1.038-2.847l3.707-9.94h3.872
			l-7.817,20h-3.289l-7.818-20h3.902l3.707,9.94c0.528,1.434,0.874,2.384,1.038,2.847c0.165,0.464,0.431,1.239,0.8,2.325H116.876z"
			/>
		<path fill="#FFFFFF" d="M132.645,91.936h9.835V95h-13.498V75h12.96v3.064h-9.297v5.172h7.982V86.3h-7.982V91.936z"/>
		<path fill="#FFFFFF" d="M154.544,95h-3.662V78.064h-6.458V75h16.562v3.064h-6.442V95z"/>
	</g>
	<g>
		<path fill="#FFFFFF" d="M44.977,81.008c0,1.396-0.386,2.579-1.158,3.551c-0.773,0.971-1.966,1.691-3.58,2.16v0.059L46.188,95
			h-4.395l-5.441-7.743h-2.511V95h-3.662V75h6.084c1.006,0,1.944,0.058,2.81,0.172c0.867,0.115,1.609,0.286,2.227,0.515
			c1.176,0.448,2.082,1.114,2.72,1.996C44.658,78.565,44.977,79.673,44.977,81.008z M35.65,84.193c0.837,0,1.547-0.037,2.13-0.112
			c0.583-0.075,1.073-0.187,1.472-0.336c0.737-0.28,1.248-0.661,1.532-1.144c0.284-0.483,0.426-1.039,0.426-1.667
			c0-0.538-0.112-1.014-0.336-1.427c-0.224-0.413-0.606-0.74-1.144-0.979c-0.349-0.159-0.787-0.277-1.315-0.352
			c-0.529-0.075-1.181-0.112-1.958-0.112h-2.616v6.129H35.65z"/>
		<path fill="#FFFFFF" d="M53.064,91.936h9.835V95H49.401V75h12.96v3.064h-9.297v5.172h7.982V86.3h-7.982V91.936z"/>
		<path fill="#FFFFFF" d="M77.07,89.633c0.438-1.574,0.981-3.264,1.629-5.067L82.152,75h5.142v20h-3.662V84.865
			c0-1.485,0.06-3.209,0.18-5.172h-0.134c-0.17,0.568-0.369,1.205-0.598,1.913c-0.23,0.708-0.469,1.405-0.718,2.094L78.221,95
			h-2.362l-4.141-11.3c-0.249-0.688-0.488-1.386-0.717-2.094c-0.23-0.708-0.428-1.345-0.598-1.913h-0.134
			c0.119,1.844,0.179,3.563,0.179,5.156V95h-3.662V75h5.112l3.453,9.522c0.578,1.584,1.122,3.288,1.63,5.112H77.07z"/>
		<path fill="#FFFFFF" d="M95.739,91.936h9.835V95H92.077V75h12.96v3.064h-9.297v5.172h7.982V86.3h-7.982V91.936z"/>
		<path fill="#FFFFFF" d="M116.876,90.112c0.368-1.086,0.635-1.861,0.8-2.325c0.164-0.463,0.51-1.413,1.038-2.847l3.707-9.94h3.872
			l-7.817,20h-3.289l-7.818-20h3.902l3.707,9.94c0.528,1.434,0.874,2.384,1.038,2.847c0.165,0.464,0.431,1.239,0.8,2.325H116.876z"
			/>
		<path fill="#FFFFFF" d="M132.645,91.936h9.835V95h-13.498V75h12.96v3.064h-9.297v5.172h7.982V86.3h-7.982V91.936z"/>
		<path fill="#FFFFFF" d="M154.544,95h-3.662V78.064h-6.458V75h16.562v3.064h-6.442V95z"/>
	</g>
</g>
<use xlink:href="#Imago.Elephant"  width="1790" height="1573" x="-1790" y="0" transform="matrix(-0.0445 0 0 -0.0445 0 70)" overflow="visible"/>
<use xlink:href="#Imago.Horse"  width="802" height="1099.81" x="-802" transform="matrix(-0.0455 0 0 -0.0455 85 70)" overflow="visible"/>
<use xlink:href="#Imago.Dog"  width="774" height="626.979" x="-773" y="0" transform="matrix(-0.0478 0 0 -0.0478 124 70)" overflow="visible"/>
</svg>
